<svg width="100" height="28" viewBox="0 0 100 28" fill="none" xmlns="http://www.w3.org/2000/svg">
<g clip-path="url(#clip0_25_55)">
<path d="M24.1548 0.23999V21.4613L26.8803 21.4717V11.3708H33.4651V8.69731H26.8803V2.91346H35.452V0.23999H24.1548ZM40.3724 4.54667C41.3607 4.54667 42.1513 3.74567 42.1513 2.76782C42.1513 1.78998 41.3503 0.988978 40.3724 0.988978C39.3842 0.988978 38.5936 1.78998 38.5936 2.76782C38.5936 3.74567 39.3946 4.54667 40.3724 4.54667ZM38.9889 7.22014V21.4613H41.7144V7.22014H38.9889Z" fill="black"/>
<path fill-rule="evenodd" clip-rule="evenodd" d="M51.8361 6.80408C48.2056 6.80408 45.6777 9.87285 45.6777 13.5138C45.6777 17.1547 48.2056 20.2234 51.8361 20.2234C53.5005 20.2234 54.8632 19.5785 55.8619 18.5382V20.4211C55.8619 22.7825 54.0102 24.7486 51.5864 24.7486C50.7126 24.7486 49.8492 24.4157 49.1626 23.9372L47.7895 26.309C48.8817 27.0163 50.1821 27.422 51.576 27.422C55.4458 27.422 58.577 24.2909 58.577 20.4211V7.22018H55.8619V8.4893C54.8632 7.44904 53.5005 6.80408 51.8361 6.80408ZM48.4136 13.5138C48.4136 11.2564 50.1405 9.47755 52.1377 9.47755C54.135 9.47755 55.8619 11.2564 55.8619 13.5138C55.8619 15.7711 54.135 17.55 52.1377 17.55C50.1405 17.55 48.4136 15.7711 48.4136 13.5138Z" fill="black"/>
<path d="M68.4284 9.47755C66.816 9.47755 65.5053 10.8507 65.5053 12.4631V21.4614H62.7798V7.22018H65.5053V8.52051C66.3063 7.49065 67.4818 6.80408 69.0213 6.80408C70.9354 6.80408 72.4022 7.75071 73.2552 9.20708C74.2018 7.80273 75.7414 6.80408 77.6035 6.80408C80.7139 6.80408 82.6488 9.31111 82.6592 12.4111V21.4614H79.9337V12.4527C79.9337 10.8403 78.6229 9.46714 77.0105 9.46714C75.3981 9.46714 74.0874 10.8403 74.0874 12.4527V21.4614H71.3619V12.4527C71.3515 10.8403 70.0408 9.47755 68.4284 9.47755Z" fill="black"/>
<path fill-rule="evenodd" clip-rule="evenodd" d="M97.202 8.83259C95.9849 7.57387 94.3204 6.80408 92.396 6.80408C88.3389 6.80408 85.447 10.2473 85.447 14.346C85.447 18.4446 88.3285 21.8879 92.396 21.8879C94.3204 21.8879 95.9849 21.1077 97.202 19.8594V21.4614H99.9274V7.22018H97.202V8.83259ZM88.1829 14.346C88.1829 11.6309 90.2634 9.47755 92.6976 9.47755C95.1214 9.47755 97.2124 11.6205 97.2124 14.346C97.2124 17.0611 95.1318 19.2144 92.6976 19.2144C90.2634 19.204 88.1829 17.0611 88.1829 14.346Z" fill="black"/>
<path d="M9.16479 13.9922C9.16479 11.4644 11.2141 9.40466 13.7523 9.40466C16.2802 9.40466 18.3399 11.454 18.3399 13.9922C18.3399 16.52 16.2906 18.5798 13.7523 18.5798C11.2245 18.5798 9.16479 16.52 9.16479 13.9922Z" fill="#1ABCFE"/>
<path d="M0 23.1569C0 20.6291 2.04931 18.5693 4.58755 18.5693H9.17509V23.1569C9.17509 25.6847 7.12578 27.7444 4.58755 27.7444C2.04931 27.7444 0 25.6951 0 23.1569Z" fill="#0ACF83"/>
<path d="M9.16479 0.240017V9.40471H13.7523C16.2802 9.40471 18.3399 7.3554 18.3399 4.81716C18.3399 2.28933 16.2906 0.229614 13.7523 0.229614H9.16479V0.240017Z" fill="#FF7262"/>
<path d="M0 4.82754C0 7.35537 2.04931 9.41509 4.58755 9.41509H9.17509V0.23999H4.58755C2.04931 0.23999 0 2.2893 0 4.82754Z" fill="#F24E1E"/>
<path d="M0 13.9922C0 16.52 2.04931 18.5798 4.58755 18.5798H9.17509V9.40466H4.58755C2.04931 9.40466 0 11.4644 0 13.9922Z" fill="#A259FF"/>
</g>
<defs>
<clipPath id="clip0_25_55">
<rect width="99.9274" height="27.54" fill="white" transform="translate(0 0.217041)"/>
</clipPath>
</defs>
</svg>
