<svg width="60" height="60" viewBox="0 0 60 60" fill="none" xmlns="http://www.w3.org/2000/svg">
<path d="M28.6099 0C28.174 0 27.8439 0.00325 27.7238 0.01675C27.5962 0.03 27.19 0.06925 26.8249 0.09875C18.3974 0.867 10.5037 5.4645 5.50402 12.5308C2.71999 16.46 0.939463 20.9165 0.267005 25.6375C0.0291728 27.285 0 27.7718 0 30.006C0 32.2402 0.0296672 32.727 0.267005 34.375C1.87893 45.64 9.80775 55.1048 20.5611 58.6113C22.4868 59.239 24.5168 59.667 26.8251 59.925C27.724 60.025 31.61 60.025 32.5089 59.925C36.4934 59.4792 39.8693 58.4825 43.1982 56.7643C43.7088 56.5002 43.8074 56.43 43.7379 56.371C43.6915 56.3363 41.5161 53.3865 38.9064 49.821L34.1621 43.341L28.217 34.4453C24.946 29.5543 22.2546 25.5553 22.2314 25.5553C22.2082 25.5487 22.1852 29.502 22.1733 34.3278C22.1567 42.7783 22.1503 43.1183 22.0457 43.3178C21.8949 43.6053 21.7787 43.7223 21.5355 43.8512C21.35 43.9448 21.1874 43.9625 20.3117 43.9625H19.3079L19.0414 43.7925C18.8762 43.6878 18.7419 43.5399 18.6528 43.3645L18.5309 43.1005L18.544 31.343L18.5606 19.5795L18.7401 19.3507C18.833 19.2275 19.0303 19.0695 19.1692 18.9932C19.4071 18.8757 19.5 18.864 20.5033 18.864C21.6868 18.864 21.8838 18.9108 22.1911 19.2508C22.2784 19.345 25.4973 24.2475 29.3483 30.1528C33.2475 36.1298 37.1491 42.1053 41.053 48.0793L45.7509 55.2747L45.9882 55.1165C48.0941 53.7325 50.3208 51.762 52.0841 49.7097C55.8367 45.3525 58.2556 40.0397 59.0675 34.3747C59.3051 32.727 59.334 32.2397 59.334 30.006C59.334 27.7718 59.3043 27.285 59.0675 25.637C57.4551 14.372 49.5265 4.90725 38.7734 1.40075C36.8766 0.779 34.8583 0.35075 32.5964 0.09275C32.1786 0.04875 29.9172 0.001 28.6099 0ZM38.6683 18.0425C39.5269 18.0425 39.6775 18.0557 39.8691 18.16C40.1477 18.3005 40.3734 18.5705 40.455 18.8517C40.501 19.0042 40.5129 22.265 40.501 29.6128L40.4844 40.1565L38.646 37.3065L36.8015 34.4565V26.7915C36.8015 21.8365 36.8245 19.0508 36.8593 18.916C36.952 18.5877 37.155 18.3295 37.4336 18.1772C37.6712 18.0537 37.7575 18.0425 38.6683 18.0425Z" fill="black"/>
</svg>
