<svg width="60" height="73" viewBox="0 0 60 73" fill="none" xmlns="http://www.w3.org/2000/svg">
<path d="M59.6067 55.1991L34.6891 2.28372C34.0642 0.960862 32.7601 0.0881108 31.282 0.00720552C29.7657 -0.0812469 28.4072 0.650222 27.6407 1.8949L0.615885 45.6665C-0.221243 47.0304 -0.20464 48.7128 0.663583 50.0604L13.8738 70.524C14.6611 71.7455 16.0253 72.4525 17.443 72.4525C17.8451 72.4525 18.249 72.3957 18.6466 72.2783L56.9918 60.9371C58.1664 60.5896 59.1267 59.7585 59.6294 58.6569C60.132 57.5554 60.1224 56.2938 59.6067 55.1991ZM54.0276 57.469L21.4925 67.0916C20.4987 67.3859 19.5459 66.5262 19.7548 65.5236L31.3777 9.86015C31.5951 8.81925 33.0339 8.65381 33.4879 9.61773L55.0087 55.3172C55.4145 56.1794 54.9514 57.1961 54.0276 57.469Z" fill="black"/>
</svg>
