<svg width="61" height="69" viewBox="0 0 61 69" fill="none" xmlns="http://www.w3.org/2000/svg">
<g clip-path="url(#clip0_18_44)">
<path d="M60.6216 26.7224C60.6216 22.7477 55.644 18.9808 48.0125 16.6449C49.7736 8.86669 48.9909 2.67835 45.5421 0.697105C44.7471 0.232368 43.8177 0.0122297 42.8026 0.0122297V2.7395C43.3652 2.7395 43.8177 2.84957 44.1968 3.05748C45.8601 4.01141 46.5816 7.6437 46.0191 12.3155C45.8845 13.4651 45.6644 14.6759 45.3953 15.9111C42.9983 15.3241 40.3811 14.8716 37.6293 14.5781C35.9783 12.3155 34.2661 10.2609 32.5417 8.46311C36.5286 4.75744 40.271 2.72727 42.8148 2.72727V0C39.4516 0 35.0488 2.39707 30.5971 6.55524C26.1454 2.42153 21.7427 0.0489199 18.3794 0.0489199V2.77619C20.911 2.77619 24.6656 4.79413 28.6526 8.47534C26.9404 10.2731 25.2282 12.3155 23.6016 14.5781C20.8376 14.8716 18.2204 15.3241 15.8234 15.9234C15.5421 14.7004 15.3342 13.5141 15.1874 12.3767C14.6126 7.70485 15.3219 4.07256 16.973 3.1064C17.3399 2.88626 17.8169 2.78842 18.3794 2.78842V0.0611496C17.3521 0.0611496 16.4226 0.281288 15.6155 0.746025C12.1789 2.72727 11.4084 8.90338 13.1817 16.6572C5.5747 19.0053 0.621582 22.7599 0.621582 26.7224C0.621582 30.6971 5.59916 34.4639 13.2306 36.7998C11.4695 44.5781 12.2522 50.7664 15.7011 52.7477C16.496 53.2124 17.4255 53.4325 18.4528 53.4325C21.816 53.4325 26.2188 51.0355 30.6705 46.8773C35.1222 51.011 39.525 53.3836 42.8882 53.3836C43.9155 53.3836 44.845 53.1635 45.6522 52.6987C49.0888 50.7175 49.8592 44.5414 48.0859 36.7876C55.6685 34.4517 60.6216 30.6849 60.6216 26.7224ZM44.6982 18.565C44.2457 20.1427 43.6831 21.7693 43.0472 23.3958C42.5458 22.4174 42.0199 21.4391 41.4451 20.4607C40.8825 19.4823 40.2832 18.5283 39.684 17.5989C41.4206 17.8557 43.0961 18.1737 44.6982 18.565ZM39.0969 31.5899C38.143 33.2409 37.1646 34.8064 36.1495 36.2617C34.3273 36.4207 32.4805 36.5063 30.6216 36.5063C28.7749 36.5063 26.9281 36.4207 25.1181 36.274C24.103 34.8186 23.1124 33.2654 22.1585 31.6266C21.229 30.0245 20.3851 28.3979 19.6147 26.7591C20.3729 25.1203 21.229 23.4815 22.1462 21.8793C23.1002 20.2283 24.0786 18.6629 25.0937 17.2075C26.9159 17.0485 28.7626 16.9629 30.6216 16.9629C32.4683 16.9629 34.315 17.0485 36.125 17.1953C37.1401 18.6506 38.1308 20.2038 39.0847 21.8426C40.0142 23.4448 40.858 25.0713 41.6285 26.7101C40.858 28.349 40.0142 29.9878 39.0969 31.5899ZM43.0472 30C43.7076 31.6388 44.2702 33.2776 44.7349 34.8675C43.1328 35.2589 41.4451 35.5891 39.6962 35.8459C40.2955 34.9042 40.8947 33.938 41.4573 32.9474C42.0199 31.969 42.5458 30.9784 43.0472 30ZM30.646 43.0493C29.5087 41.8753 28.3713 40.5667 27.2461 39.1357C28.3468 39.1847 29.472 39.2214 30.6094 39.2214C31.759 39.2214 32.8964 39.1969 34.0093 39.1357C32.9086 40.5667 31.7712 41.8753 30.646 43.0493ZM21.547 35.8459C19.8103 35.5891 18.1348 35.2711 16.5327 34.8797C16.9852 33.3021 17.5478 31.6755 18.1838 30.0489C18.6852 31.0273 19.2111 32.0057 19.7859 32.9841C20.3607 33.9625 20.9477 34.9164 21.547 35.8459ZM30.5849 10.3954C31.7223 11.5695 32.8597 12.8781 33.9848 14.309C32.8841 14.2601 31.759 14.2234 30.6216 14.2234C29.472 14.2234 28.3346 14.2479 27.2217 14.309C28.3224 12.8781 29.4597 11.5695 30.5849 10.3954ZM21.5348 17.5989C20.9355 18.5406 20.3362 19.5067 19.7736 20.4974C19.2111 21.4757 18.6852 22.4541 18.1838 23.4325C17.5233 21.7937 16.9608 20.1549 16.496 18.565C18.0981 18.1859 19.7859 17.8557 21.5348 17.5989ZM10.4667 32.9107C6.13728 31.064 3.33662 28.6425 3.33662 26.7224C3.33662 24.8023 6.13728 22.3685 10.4667 20.534C11.5184 20.0815 12.6681 19.6779 13.8544 19.2988C14.5515 21.6959 15.4687 24.1908 16.6061 26.7468C15.4809 29.2907 14.5759 31.7733 13.8911 34.1582C12.6803 33.779 11.5307 33.3632 10.4667 32.9107ZM17.0464 50.3873C15.3831 49.4333 14.6615 45.8011 15.2241 41.1292C15.3586 39.9796 15.5788 38.7689 15.8478 37.5336C18.2449 38.1207 20.8621 38.5732 23.6138 38.8667C25.2649 41.1292 26.9771 43.1839 28.7015 44.9817C24.7145 48.6873 20.9722 50.7175 18.4283 50.7175C17.878 50.7053 17.4133 50.5952 17.0464 50.3873ZM46.0557 41.0681C46.6306 45.7399 45.9212 49.3722 44.2702 50.3384C43.9033 50.5585 43.4263 50.6563 42.8637 50.6563C40.3321 50.6563 36.5776 48.6384 32.5906 44.9572C34.3028 43.1594 36.015 41.117 37.6416 38.8545C40.4055 38.5609 43.0227 38.1084 45.4198 37.5092C45.7011 38.7444 45.9212 39.9307 46.0557 41.0681ZM50.7643 32.9107C49.7125 33.3632 48.5629 33.7668 47.3766 34.1459C46.6795 31.7489 45.7622 29.254 44.6248 26.6979C45.75 24.1541 46.655 21.6714 47.3399 19.2866C48.5507 19.6657 49.7003 20.0815 50.7765 20.534C55.1059 22.3808 57.9065 24.8023 57.9065 26.7224C57.8943 28.6425 55.0937 31.0762 50.7643 32.9107Z" fill="#61DAFB"/>
<path d="M30.6093 32.3115C33.6961 32.3115 36.1984 29.8091 36.1984 26.7224C36.1984 23.6356 33.6961 21.1333 30.6093 21.1333C27.5226 21.1333 25.0203 23.6356 25.0203 26.7224C25.0203 29.8091 27.5226 32.3115 30.6093 32.3115Z" fill="#61DAFB"/>
</g>
<defs>
<clipPath id="clip0_18_44">
<rect width="60" height="68.3683" fill="white" transform="translate(0.621582)"/>
</clipPath>
</defs>
</svg>
