<svg width="60" height="60" viewBox="0 0 60 60" fill="none" xmlns="http://www.w3.org/2000/svg">
<g clip-path="url(#clip0_25_53)">
<path d="M59.5901 29.2645L57.0713 27.7052C57.05 27.4604 57.0261 27.2159 56.9995 26.9716L59.1642 24.9525C59.2725 24.8519 59.3531 24.7253 59.3985 24.5846C59.4438 24.444 59.4523 24.2941 59.4232 24.1493C59.3948 24.0043 59.3296 23.8691 59.234 23.7565C59.1384 23.6439 59.0155 23.5577 58.8771 23.5061L56.1098 22.4714C56.0403 22.2324 55.9681 21.9943 55.893 21.757L57.6192 19.3596C57.7057 19.2397 57.7601 19.0998 57.7772 18.953C57.7943 18.8062 57.7737 18.6575 57.7171 18.5209C57.6606 18.3844 57.5701 18.2646 57.4542 18.1728C57.3384 18.0811 57.201 18.0206 57.0551 17.9969L54.1371 17.5223C54.0237 17.3011 53.9055 17.0831 53.7865 16.867L55.0125 14.1757C55.0742 14.0414 55.1004 13.8935 55.0886 13.7462C55.0768 13.5988 55.0273 13.457 54.945 13.3343C54.8633 13.2111 54.7513 13.1111 54.6198 13.0437C54.4883 12.9763 54.3417 12.9438 54.1941 12.9494L51.2325 13.0525C51.0795 12.861 50.9236 12.6718 50.7647 12.4851L51.4453 9.60044C51.4794 9.45656 51.476 9.30637 51.4355 9.16417C51.3951 9.02197 51.3189 8.8925 51.2142 8.78809C51.1098 8.68357 50.9804 8.60747 50.8383 8.56703C50.6962 8.52658 50.5461 8.52313 50.4023 8.557L47.5184 9.23692C47.3311 9.07819 47.1416 8.92223 46.9498 8.76911L47.0534 5.80778C47.0589 5.66015 47.0265 5.51356 46.9592 5.38204C46.8919 5.25052 46.792 5.13847 46.669 5.05661C46.5462 4.9744 46.4044 4.92499 46.2571 4.91309C46.1098 4.9012 45.962 4.9272 45.8276 4.98864L43.137 6.21536C42.9199 6.09557 42.7015 5.97838 42.4816 5.86379L42.0059 2.94536C41.982 2.79963 41.9214 2.66239 41.8297 2.54666C41.738 2.43092 41.6183 2.34052 41.4818 2.28402C41.3454 2.22752 41.1968 2.20679 41.0501 2.2238C40.9035 2.24081 40.7635 2.295 40.6437 2.38122L38.2446 4.10739C38.0086 4.03239 37.7712 3.95997 37.5316 3.89129L36.4969 1.12356C36.4454 0.984903 36.3592 0.861765 36.2466 0.765911C36.134 0.670057 35.9986 0.604691 35.8535 0.576059C35.7087 0.547571 35.5591 0.556421 35.4187 0.601772C35.2783 0.647124 35.1518 0.727485 35.051 0.835278L33.0319 3.00161C32.7877 2.97424 32.5431 2.95033 32.2983 2.92989L30.739 0.410356C30.6613 0.284809 30.5528 0.181192 30.4238 0.109333C30.2948 0.0374739 30.1496 -0.000244141 30.002 -0.000244141C29.8543 -0.000244141 29.7091 0.0374739 29.5802 0.109333C29.4512 0.181192 29.3427 0.284809 29.265 0.410356L27.7057 2.92989C27.4606 2.9503 27.2158 2.97421 26.9714 3.00161L24.9518 0.835278C24.8511 0.727085 24.7245 0.646448 24.5839 0.601039C24.4432 0.555631 24.2933 0.546961 24.1484 0.575856C24.0035 0.604751 23.8684 0.670249 23.7559 0.766118C23.6435 0.861987 23.5574 0.985036 23.5059 1.12356L22.4714 3.89129C22.2316 3.95997 21.9945 4.03286 21.7577 4.10739L19.3591 2.38122C19.2393 2.2946 19.0993 2.24017 18.9524 2.22314C18.8056 2.20611 18.6568 2.22705 18.5203 2.28395C18.384 2.34058 18.2643 2.43103 18.1727 2.54676C18.081 2.66249 18.0204 2.79967 17.9965 2.94536L17.5207 5.86379C17.3004 5.97793 17.0827 6.09536 16.8654 6.21536L14.1745 4.9884C14.0402 4.92693 13.8924 4.90093 13.7452 4.91287C13.5979 4.92481 13.4562 4.9743 13.3336 5.05661C13.2105 5.13842 13.1105 5.25044 13.0431 5.38196C12.9758 5.51349 12.9433 5.6601 12.9488 5.80778L13.0519 8.76911C12.8603 8.92251 12.6707 9.07847 12.4833 9.23692L9.5993 8.55723C9.45543 8.52352 9.30535 8.52703 9.16322 8.56742C9.02108 8.60781 8.89159 8.68376 8.78695 8.78809C8.68228 8.8925 8.60609 9.02197 8.56563 9.16417C8.52518 9.30637 8.52182 9.45656 8.55586 9.60044L9.23531 12.4851C9.07758 12.6719 8.92172 12.8611 8.76867 13.0525L5.80711 12.9494C5.65963 12.9448 5.51337 12.9776 5.38204 13.0449C5.2507 13.1121 5.13858 13.2116 5.05617 13.334C4.97399 13.4568 4.92458 13.5986 4.91264 13.7459C4.9007 13.8931 4.92664 14.041 4.98797 14.1754L6.21469 16.867C6.09539 17.0831 5.9775 17.3011 5.86313 17.5223L2.94539 17.9969C2.79958 18.0207 2.66227 18.0813 2.54647 18.1731C2.43067 18.2648 2.34022 18.3846 2.28371 18.5211C2.2272 18.6576 2.2065 18.8063 2.22357 18.953C2.24064 19.0997 2.29492 19.2397 2.38125 19.3596L4.10742 21.7572C4.03242 21.9939 3.95953 22.2316 3.89063 22.4714L1.12313 23.5061C0.984915 23.5581 0.86224 23.6444 0.76671 23.757C0.67118 23.8695 0.605955 24.0046 0.577208 24.1494C0.54846 24.2942 0.557142 24.444 0.602431 24.5845C0.64772 24.725 0.728118 24.8517 0.836016 24.9525L3.00094 26.9714C2.97398 27.2151 2.95008 27.4605 2.92945 27.7052L0.410157 29.2645C0.284628 29.3422 0.181052 29.4507 0.109266 29.5797C0.0374794 29.7087 -0.000133237 29.854 3.54623e-07 30.0016C3.54623e-07 30.3025 0.155391 30.5812 0.410391 30.7382L2.92945 32.2975C2.95008 32.5429 2.97398 32.7879 3.00094 33.0314L0.835782 35.051C0.727691 35.1516 0.647123 35.2782 0.601726 35.4188C0.55633 35.5593 0.547613 35.7092 0.576402 35.854C0.605191 35.9989 0.670532 36.134 0.766219 36.2465C0.861906 36.359 0.984763 36.4452 1.12313 36.4968L3.89063 37.5316C3.95953 37.7711 4.03242 38.009 4.10742 38.2458L2.38125 40.6436C2.29476 40.7635 2.24036 40.9035 2.22325 41.0503C2.20614 41.1971 2.22688 41.3458 2.2835 41.4824C2.34011 41.6189 2.43072 41.7387 2.54669 41.8303C2.66267 41.9219 2.80017 41.9824 2.94609 42.0058L5.86336 42.4804C5.9775 42.7017 6.09445 42.9197 6.21492 43.1367L4.98797 45.8273C4.92652 45.9617 4.90053 46.1096 4.91247 46.2569C4.92441 46.4042 4.97388 46.546 5.05617 46.6687C5.13799 46.7917 5.24999 46.8917 5.38147 46.959C5.51294 47.0263 5.65949 47.0588 5.80711 47.0533L8.76727 46.9497C8.92172 47.1422 9.07711 47.3308 9.23531 47.5183L8.55586 50.4035C8.52184 50.5471 8.52522 50.697 8.56568 50.839C8.60614 50.9809 8.68232 51.1101 8.78695 51.2142C8.89129 51.3189 9.02079 51.3951 9.16303 51.4355C9.30527 51.4758 9.4555 51.479 9.5993 51.4446L12.4833 50.7654C12.6708 50.9247 12.8606 51.0794 13.0521 51.2318L12.949 54.194C12.9437 54.3416 12.9762 54.4881 13.0435 54.6196C13.1108 54.7511 13.2106 54.8632 13.3334 54.9452C13.4562 55.0272 13.598 55.0765 13.7452 55.0883C13.8924 55.1 14.0402 55.0739 14.1745 55.0125L16.8654 53.7864C17.0821 53.9068 17.3005 54.024 17.5207 54.1378L17.9965 57.0546C18.02 57.2005 18.0805 57.3379 18.1722 57.4538C18.2639 57.5698 18.3837 57.6602 18.5203 57.7167C18.6568 57.7732 18.8055 57.794 18.9523 57.7771C19.0991 57.7601 19.2391 57.706 19.3591 57.6199L21.7566 55.8925C21.9933 55.9675 22.2312 56.0409 22.4707 56.1098L23.5055 58.8764C23.557 59.0148 23.6432 59.1378 23.7558 59.2334C23.8684 59.3291 24.0036 59.3942 24.1486 59.4227C24.2934 59.4519 24.4433 59.4434 24.5838 59.398C24.7244 59.3526 24.851 59.2719 24.9513 59.1635L26.9709 56.9983C27.2147 57.0265 27.4598 57.0499 27.7052 57.0717L29.2645 59.5907C29.3423 59.7161 29.4508 59.8196 29.5797 59.8913C29.7086 59.9631 29.8536 60.0008 30.0012 60.0009C30.1488 60.0009 30.2939 59.9632 30.4229 59.8914C30.5519 59.8196 30.6604 59.7162 30.7383 59.5907L32.2976 57.0717C32.543 57.0499 32.7879 57.0265 33.0314 56.9983L35.0505 59.1635C35.1509 59.2718 35.2774 59.3525 35.418 59.3979C35.5585 59.4432 35.7083 59.4518 35.8531 59.4227C35.998 59.3941 36.1332 59.3289 36.2458 59.2333C36.3583 59.1377 36.4446 59.0148 36.4962 58.8764L37.5309 56.1098C37.7705 56.0409 38.0086 55.9675 38.2453 55.8925L40.6432 57.6199C40.7632 57.7061 40.9032 57.7603 41.0499 57.7772C41.1967 57.7942 41.3453 57.7733 41.4818 57.7167C41.6182 57.6601 41.738 57.5695 41.8296 57.4537C41.9212 57.3378 41.9817 57.2004 42.0054 57.0546L42.4812 54.1378C42.7013 54.0236 42.919 53.905 43.1362 53.7862L45.8271 55.0125C45.9614 55.0741 46.1093 55.1004 46.2566 55.0887C46.4039 55.077 46.5458 55.0278 46.6687 54.9457C46.7916 54.8637 46.8914 54.7515 46.9587 54.6199C47.0259 54.4883 47.0584 54.3417 47.0529 54.194L46.9498 51.232C47.1415 51.0795 47.3308 50.9239 47.5177 50.7654L50.4019 51.4446C50.6948 51.5135 51.0019 51.4282 51.2135 51.2142C51.3181 51.1101 51.3943 50.9809 51.4348 50.839C51.4753 50.697 51.4786 50.5471 51.4446 50.4035L50.7654 47.5183C50.9236 47.3308 51.0795 47.1422 51.2318 46.9497L54.1934 47.0533C54.341 47.0589 54.4875 47.0265 54.619 46.9592C54.7505 46.8919 54.8625 46.7919 54.9443 46.669C55.0267 46.5462 55.0762 46.4043 55.0881 46.2569C55.1 46.1094 55.0738 45.9615 55.012 45.8271L53.7858 43.1369C53.9055 42.9197 54.0232 42.7017 54.1366 42.4807L57.0546 42.0058C57.2005 41.9824 57.3379 41.9219 57.4537 41.8302C57.5695 41.7384 57.6599 41.6184 57.716 41.4818C57.7726 41.3454 57.7933 41.1968 57.7763 41.0501C57.7593 40.9034 57.7051 40.7635 57.6187 40.6436L55.8926 38.246C55.9671 38.009 56.04 37.7711 56.1094 37.5316L58.8764 36.4968C59.0149 36.4453 59.1379 36.3591 59.2335 36.2465C59.3292 36.1338 59.3943 35.9985 59.4227 35.8535C59.4519 35.7087 59.4434 35.5589 59.398 35.4184C59.3526 35.2778 59.2719 35.1513 59.1635 35.051L56.9991 33.0314C57.0253 32.7876 57.0495 32.5425 57.0705 32.2978L59.5896 30.7382C59.7152 30.6607 59.8188 30.5523 59.8907 30.4233C59.9625 30.2944 60.0001 30.1492 60 30.0016C60 29.7014 59.8453 29.4222 59.5901 29.2645ZM42.731 50.1604C41.7691 49.953 41.1574 49.005 41.3639 48.04C41.5697 47.0763 42.517 46.4629 43.4787 46.6704C44.4405 46.8764 45.0532 47.8261 44.847 48.7891C44.6407 49.7524 43.6924 50.3665 42.731 50.1604ZM41.8751 44.3716C41.6664 44.3268 41.4509 44.3237 41.2409 44.3623C41.031 44.4009 40.8307 44.4805 40.6515 44.5965C40.4724 44.7126 40.3179 44.8629 40.1968 45.0387C40.0758 45.2145 39.9906 45.4125 39.9462 45.6213L39.0518 49.7948C36.292 51.0473 33.2276 51.7432 30 51.7432C26.6986 51.7432 23.5673 51.0129 20.7586 49.7069L19.8647 45.5336C19.6767 44.6554 18.8133 44.096 17.9363 44.2844L14.2519 45.0757C13.5671 44.3709 12.9307 43.6208 12.3469 42.8304H30.2742C30.477 42.8304 30.6122 42.7936 30.6122 42.6089V36.2674C30.6122 36.0829 30.477 36.0461 30.274 36.0461H25.0312V32.0266H30.702C31.2195 32.0266 33.4697 32.1743 34.189 35.0505C34.4145 35.935 34.909 38.8122 35.2474 39.7333C35.5845 40.7665 36.9567 42.8301 38.4192 42.8301H47.3524C47.4539 42.8301 47.5622 42.8186 47.6763 42.798C47.0565 43.6398 46.3775 44.4363 45.6445 45.1816L41.8751 44.3716ZM17.0805 50.0732C16.1184 50.2809 15.1713 49.6675 14.9644 48.7038C14.7586 47.7384 15.3703 46.7908 16.3322 46.5834C17.2943 46.3776 18.2419 46.991 18.4481 47.9545C18.6539 48.9178 18.042 49.867 17.0805 50.0732ZM10.2797 22.4967C10.6788 23.3972 10.2727 24.4525 9.37336 24.851C8.47406 25.2506 7.42148 24.8439 7.02258 23.9428C6.62344 23.0416 7.02938 21.9881 7.92891 21.5885C8.14286 21.4936 8.37341 21.4418 8.60739 21.4361C8.84137 21.4304 9.07419 21.4708 9.29252 21.5552C9.51085 21.6395 9.71041 21.766 9.8798 21.9275C10.0492 22.0891 10.1851 22.2826 10.2797 22.4967ZM8.18953 27.4514L12.0277 25.7458C12.4217 25.5706 12.73 25.246 12.8849 24.8436C13.0397 24.4411 13.0285 23.9936 12.8536 23.5994L12.0633 21.8121H15.172V35.8249H8.89992C8.34394 33.8677 8.06266 31.8427 8.06414 29.808C8.06414 29.0116 8.10703 28.2248 8.18953 27.4514ZM25.0322 26.0904V21.96H32.4352C32.8177 21.96 35.1352 22.402 35.1352 24.135C35.1352 25.5738 33.3577 26.0897 31.8959 26.0897H25.0322V26.0904ZM51.9366 29.808C51.9366 30.356 51.9164 30.8983 51.8763 31.4365H49.6256C49.4004 31.4365 49.3097 31.5846 49.3097 31.8051V32.8387C49.3097 35.2715 47.9379 35.8007 46.7358 35.9355C45.5911 36.0644 44.3217 35.4562 44.1654 34.7557C43.4899 30.9574 42.3647 30.1462 40.5877 28.7444C42.7931 27.344 45.0877 25.278 45.0877 22.5124C45.0877 19.5264 43.0406 17.6456 41.6452 16.7233C39.6877 15.4329 37.5202 15.1741 36.9354 15.1741H13.6591C16.8155 11.6514 21.0933 9.15606 25.9315 8.24809L28.6751 11.1262C28.8223 11.2807 28.9985 11.4046 29.1937 11.4909C29.3888 11.5772 29.5991 11.6242 29.8124 11.6291C30.0257 11.634 30.2379 11.5968 30.4369 11.5196C30.6358 11.4424 30.8176 11.3267 30.9717 11.1792L34.0416 8.24293C40.474 9.44059 45.9202 13.4447 49.0587 18.9382L46.957 23.685C46.5942 24.5064 46.9645 25.4672 47.7837 25.8311L51.8299 27.6283C51.8998 28.3467 51.9366 29.0723 51.9366 29.808ZM28.6762 5.79957C29.3871 5.11872 30.5147 5.14567 31.1953 5.85747C31.8745 6.57137 31.8488 7.70012 31.1363 8.38051C30.4254 9.06161 29.2978 9.03512 28.6172 8.32192C28.2911 7.97934 28.1141 7.52139 28.1252 7.04853C28.1363 6.57568 28.3344 6.12651 28.6762 5.79957ZM49.5316 22.5832C49.6262 22.3691 49.762 22.1758 49.9314 22.0143C50.1008 21.8528 50.3003 21.7263 50.5186 21.642C50.7369 21.5577 50.9697 21.5173 51.2036 21.5231C51.4376 21.5289 51.6681 21.5807 51.882 21.6757C52.7815 22.0746 53.1874 23.1295 52.7883 24.03C52.6938 24.2441 52.5579 24.4375 52.3886 24.5991C52.2192 24.7607 52.0196 24.8873 51.8013 24.9717C51.5829 25.056 51.3501 25.0965 51.116 25.0907C50.882 25.085 50.6515 25.0331 50.4375 24.9382C49.5391 24.539 49.1332 23.485 49.5316 22.5832Z" fill="black"/>
</g>
<defs>
<clipPath id="clip0_25_53">
<rect width="60" height="60" fill="white"/>
</clipPath>
</defs>
</svg>
