<svg width="65" height="39" viewBox="0 0 65 39" fill="none" xmlns="http://www.w3.org/2000/svg">
<path d="M32.6216 0C24.0882 0 18.7549 4.26667 16.6216 12.8C19.8216 8.53333 23.5549 6.93333 27.8216 8C30.2562 8.608 31.9949 10.3733 33.9229 12.3307C37.0616 15.5147 40.6909 19.2 48.6216 19.2C57.1549 19.2 62.4883 14.9333 64.6216 6.4C61.4216 10.6667 57.6883 12.2667 53.4216 11.2C50.9869 10.592 49.2483 8.82667 47.3203 6.86933C44.1843 3.68533 40.5549 0 32.6216 0ZM16.6216 19.2C8.08825 19.2 2.75492 23.4667 0.621582 32C3.82158 27.7333 7.55492 26.1333 11.8216 27.2C14.2562 27.808 15.9949 29.5733 17.9229 31.5307C21.0616 34.7147 24.6909 38.4 32.6216 38.4C41.1549 38.4 46.4883 34.1333 48.6216 25.6C45.4216 29.8667 41.6882 31.4667 37.4216 30.4C34.9869 29.792 33.2482 28.0267 31.3202 26.0693C28.1842 22.8853 24.5549 19.2 16.6216 19.2Z" fill="black"/>
</svg>
