<svg width="69" height="70" viewBox="0 0 69 70" fill="none" xmlns="http://www.w3.org/2000/svg">
<g clip-path="url(#clip0_18_8)">
<path d="M48.7852 0.452515H20.2148C9.05049 0.452515 0 9.50301 0 20.6674V49.2377C0 60.402 9.05049 69.4525 20.2148 69.4525H48.7852C59.9495 69.4525 69 60.402 69 49.2377V20.6674C69 9.50301 59.9495 0.452515 48.7852 0.452515Z" fill="#398CCB"/>
<path fill-rule="evenodd" clip-rule="evenodd" d="M34.4254 10.5599L44.0042 16.0864V19.1251L55.5982 25.8205V37.2737L58.7082 39.0691V50.1282L49.1356 55.6545L44.8858 53.1968L34.5529 59.1626L24.2819 53.2313L20.0916 55.6545L10.519 50.1188V39.0691L13.5078 37.3437V25.8205L24.8529 19.2709L24.8592 19.2706V16.0864L34.4254 10.5599ZM44.0042 21.9987V27.1392L34.4316 32.6657L24.8592 27.1392V22.1412L24.8529 22.1414L15.9957 27.2574V35.9072L20.0916 33.5426L29.664 39.0691V50.1188L26.768 51.7935L34.5529 56.289L42.3998 51.7594L39.5631 50.1188V39.0691L49.1356 33.5426L53.1101 35.8373V27.2574L44.0042 21.9987ZM42.0511 48.6944V41.9489L47.8916 45.3202V52.0657L42.0511 48.6944ZM56.2201 41.9396L50.3797 45.3109V52.0657L56.2201 48.6851V41.9396ZM13.007 48.6851V41.9396L18.8476 45.3109V52.0563L13.007 48.6851ZM27.1761 41.9396L21.3355 45.3109V52.0563L27.1761 48.6851V41.9396ZM43.2952 39.7937L49.1356 36.4225L54.9761 39.7937L49.1356 43.1681L43.2952 39.7937ZM20.0916 36.4131L14.251 39.7937L20.0916 43.1587L25.9321 39.7937L20.0916 36.4131ZM27.3471 25.7025V18.9569L33.1814 22.3312V29.0736L27.3471 25.7025ZM41.5099 18.9569L35.6756 22.3312V29.0705L41.5099 25.7025V18.9569ZM28.5911 16.8047L34.4254 13.4336L40.266 16.8047L34.4254 20.176L28.5911 16.8047Z" fill="white"/>
</g>
<defs>
<clipPath id="clip0_18_8">
<rect width="69" height="69" fill="white" transform="translate(0 0.452515)"/>
</clipPath>
</defs>
</svg>
