<svg width="58" height="56" viewBox="0 0 58 56" fill="none" xmlns="http://www.w3.org/2000/svg">
<g clip-path="url(#clip0_25_66)">
<path d="M2.55613 20.0092C2.55613 20.0092 1.20682 19.0366 2.82599 17.7379L6.59845 14.3646C6.59845 14.3646 7.6779 13.2289 8.81919 14.2184L43.6315 40.575V53.2136C43.6315 53.2136 43.6146 55.1982 41.0678 54.9789L2.55613 20.0092Z" fill="#2489CA"/>
<path d="M11.5292 28.1556L2.55628 36.3134C2.55628 36.3134 1.63425 36.9993 2.55628 38.2249L6.72228 42.0142C6.72228 42.0142 7.71178 43.0768 9.17353 41.868L18.6862 34.6548L11.5292 28.1556Z" fill="#1070B3"/>
<path d="M27.2823 28.2232L43.7383 15.6577L43.6315 3.0866C43.6315 3.0866 42.9287 0.342999 40.5843 1.77102L18.686 21.7015L27.2823 28.2232Z" fill="#0877B9"/>
<path d="M41.068 54.9957C42.0237 55.974 43.1819 55.6535 43.1819 55.6535L56.006 49.3342C57.6477 48.2154 57.4172 46.8267 57.4172 46.8267V9.09095C57.4172 7.43242 55.7193 6.85896 55.7193 6.85896L44.6043 1.50107C42.1755 -4.33326e-05 40.5845 1.77093 40.5845 1.77093C40.5845 1.77093 42.6309 0.29793 43.6317 3.08651V52.983C43.6317 53.3259 43.5586 53.6633 43.4124 53.9669C43.1201 54.5572 42.4848 55.1081 40.9612 54.8776L41.068 54.9957Z" fill="#3C99D4"/>
</g>
<defs>
<clipPath id="clip0_25_66">
<rect width="57" height="55.974" fill="white" transform="translate(0.927246)"/>
</clipPath>
</defs>
</svg>
